# xmcd
#
# Track frame offsets:
# 150
# 17358
# 32931
# 49231
# 63960
# 80158
# 89193
# 107868
# 118429
# 133017
# 147392
# 161856
#
# Disc length: 2344 seconds
#
#
# Revision: 0
# Processed by: cddbd v1.5.1PL2 Copyright (c) Steve Scherf et al.
# Submitted via: FreeRIP 2.931 
#
DISCID=b709260c
DTITLE=Ary and Boré - Amor Antigo
DYEAR=2006
DGENRE=Sertanejo
TTITLE0=Vou te amar
TTITLE1=Amor antigo
TTITLE2=Por aí sem você
TTITLE3=Metade de mim
TTITLE4=Amor casual
TTITLE5=Pagode bruto
TTITLE6=Pout Pourri: Coração quebrado - Biquini bordô
TTITLE7=Buscar a Goiana
TTITLE8=Solidão no seu lugar
TTITLE9=Vai se danar
TTITLE10=Canção de um amor distante (Canto al Paraguay)
TTITLE11=Ponto de chegada
EXTD=
EXTT0=Pantanal Discos
EXTT1=Pantanal Discos
EXTT2=Pantanal Discos
EXTT3=Pantanal Discos
EXTT4=Pantanal Discos
EXTT5=Pantanal Discos
EXTT6=Pantanal Discos
EXTT7=Pantanal Discos
EXTT8=Pantanal Discos
EXTT9=Pantanal Discos
EXTT10=Pantanal Discos
EXTT11=Pantanal Discos
PLAYORDER=
